<svg width="48" height="48" viewBox="0 0 48 48" fill="none" xmlns="http://www.w3.org/2000/svg">
<g clip-path="url(#clip0_1456_1541)">
<path fill-rule="evenodd" clip-rule="evenodd" d="M47.8538 14.2864C48.2914 15.3255 47.7063 16.4858 46.6371 16.8425L25.345 23.9458C24.5465 24.2122 23.7872 23.4514 24.0547 22.653L31.1857 1.36087C31.5438 0.291635 32.7043 -0.292019 33.7423 0.147364C36.8891 1.47934 39.7553 3.40964 42.1786 5.83769C44.6019 8.26574 46.527 11.1361 47.8538 14.2864ZM26.139 0.0940212C26.7679 0.14956 27.1604 0.784344 26.9599 1.38295C26.8077 1.83743 26.3569 2.11954 25.8793 2.07914C25.2598 2.02674 24.633 2 24 2C11.8497 2 2 11.8497 2 24C2 36.1503 11.8497 46 24 46C36.1503 46 46 36.1503 46 24C46 23.3751 45.9739 22.7564 45.9229 22.1447C45.883 21.6671 46.1656 21.2165 46.6203 21.0648C47.2191 20.8651 47.8534 21.2583 47.9083 21.8871C47.969 22.5833 48 23.288 48 24C48 37.2548 37.2548 48 24 48C10.7452 48 0 37.2548 0 24C0 10.7452 10.7452 3.06114e-10 24 3.06114e-10C24.7209 3.06114e-10 25.4343 0.031782 26.139 0.0940212Z" fill="url(#paint0_linear_1456_1541)"/>
</g>
<defs>
<linearGradient id="paint0_linear_1456_1541" x1="48" y1="-1.50502e-06" x2="-1.00881e-05" y2="48" gradientUnits="userSpaceOnUse">
<stop stop-color="#FB049C"/>
<stop offset="1" stop-color="#4F02FF"/>
</linearGradient>
<clipPath id="clip0_1456_1541">
<rect width="48" height="48" fill="white"/>
</clipPath>
</defs>
</svg>
