<svg width="48" height="48" viewBox="0 0 48 48" fill="none" xmlns="http://www.w3.org/2000/svg">
<path fill-rule="evenodd" clip-rule="evenodd" d="M27.4487 2.26874C27.7337 2.31361 28.0259 2.24665 28.2581 2.07545C28.9705 1.55025 28.749 0.453097 27.8754 0.311264C26.6139 0.106462 25.3194 0 24 0C10.7452 0 0 10.7452 0 24C0 30.8897 2.90316 37.1014 7.5529 41.4784C8.01485 41.9133 8.754 41.7808 9.06517 41.2279C9.29884 40.8127 9.20849 40.2924 8.86283 39.9646C4.636 35.9555 2 30.2856 2 24C2 11.8497 11.8497 2 24 2C25.1733 2 26.3251 2.09185 27.4487 2.26874ZM39.1377 8.03589C38.792 7.70804 38.7017 7.18778 38.9354 6.77263C39.2465 6.21974 39.9857 6.08719 40.4477 6.52208C45.0971 10.8991 48 17.1105 48 24C48 37.2548 37.2548 48 24 48C22.681 48 21.3869 47.8936 20.1257 47.6889C19.252 47.5471 19.0305 46.4499 19.7429 45.9247C19.9752 45.7535 20.2673 45.6866 20.5523 45.7314C21.6756 45.9082 22.8271 46 24 46C36.1503 46 46 36.1503 46 24C46 17.7147 43.3642 12.0449 39.1377 8.03589ZM37.3341 0.353994L10.1951 20.3607C9.88391 20.5902 9.89101 21.0562 10.2091 21.278L20.7473 28.6267L10.2484 47.2806C10.0989 47.5462 10.4203 47.8278 10.6661 47.6466L37.8051 27.6398C38.1163 27.4104 38.1092 26.9444 37.7911 26.7226L27.2529 19.3739L37.7518 0.719966C37.9013 0.454333 37.5799 0.172765 37.3341 0.353994Z" fill="url(#paint0_linear_1442_1596)"/>
<defs>
<linearGradient id="paint0_linear_1442_1596" x1="48" y1="-1.50502e-06" x2="-4.36604e-06" y2="48" gradientUnits="userSpaceOnUse">
<stop stop-color="#FB049C"/>
<stop offset="1" stop-color="#4F02FF"/>
</linearGradient>
</defs>
</svg>
