<svg width="48" height="48" viewBox="0 0 48 48" fill="none" xmlns="http://www.w3.org/2000/svg">
<path fill-rule="evenodd" clip-rule="evenodd" d="M24 0.598145C24.8504 0.598145 25.152 1.64521 24.4679 2.15048L24.1453 2.38875C23.9607 2.5251 23.7362 2.59852 23.5068 2.60356C11.5843 2.86582 2 12.6127 2 24.5981C2 36.7484 11.8497 46.5981 24 46.5981C36.1503 46.5981 46 36.7484 46 24.5981C46 17.5591 42.6942 11.2922 37.5504 7.26522C37.3654 7.12043 37.2288 6.92217 37.1647 6.69621C36.8968 5.75223 37.9017 5.00751 38.6777 5.60814C44.3488 9.99786 48 16.8716 48 24.5981C48 37.853 37.2548 48.5981 24 48.5981C10.7452 48.5981 0 37.853 0 24.5981C0 11.3433 10.7452 0.598145 24 0.598145ZM31.2112 1.42609L9.31566 17.5991C8.64562 18.094 8.3525 18.9524 8.57989 19.7538L15.0279 42.4776C16.4672 43.2013 18.006 43.7563 19.6182 44.1167L38.6843 30.0336C39.3543 29.5387 39.6474 28.6803 39.42 27.879L31.9893 1.69178C31.894 1.35575 31.4922 1.21855 31.2112 1.42609ZM30.1117 10.2232L28.2524 24.8996C28.1698 25.552 27.4909 25.9484 26.8822 25.6997L13.4679 20.22L26.5933 27.4541C27.0848 27.725 27.2572 28.3471 26.9752 28.8323L20.3607 40.2138L28.7427 29.2064C29.064 28.7844 29.5398 28.5073 30.0655 28.4361L34.3821 27.8516L31.415 27.1588C30.4982 26.9447 29.8548 26.1202 29.87 25.1788L30.1117 10.2232Z" fill="url(#paint0_linear_1447_738)"/>
<defs>
<linearGradient id="paint0_linear_1447_738" x1="48" y1="0.598143" x2="-6.27339e-06" y2="48.5981" gradientUnits="userSpaceOnUse">
<stop stop-color="#FB049C"/>
<stop offset="1" stop-color="#4F02FF"/>
</linearGradient>
</defs>
</svg>
