<svg width="48" height="48" viewBox="0 0 48 48" fill="none" xmlns="http://www.w3.org/2000/svg">
<path fill-rule="evenodd" clip-rule="evenodd" d="M2.09597 26.0688C2.05716 25.6527 1.78874 25.2874 1.39347 25.1517C0.716064 24.9193 0.0322752 25.4474 0.0959296 26.1608C1.12484 37.6914 10.3086 46.8752 21.8392 47.904C22.5526 47.9677 23.0808 47.2839 22.8483 46.6065C22.7126 46.2112 22.3474 45.9428 21.9313 45.904C11.4321 44.9248 3.07515 36.5679 2.09597 26.0688ZM32.8293 44.1566C32.4288 44.3322 32.179 44.7408 32.2122 45.1768C32.2629 45.8432 32.9334 46.2924 33.5465 46.0263C42.0514 42.335 48 33.8622 48 24C48 10.7452 37.2548 0 24 0C14.1378 0 5.6649 5.94859 1.97369 14.4535C1.7076 15.0666 2.15672 15.7371 2.82313 15.7878C3.25918 15.821 3.66771 15.5712 3.84338 15.1707C7.2449 7.41639 14.9899 2 24 2C36.1502 2 46 11.8497 46 24C46 33.0101 40.5836 40.7551 32.8293 44.1566ZM28.5715 19.4286C25.4244 16.2816 21.6464 14.0557 17.4979 12.7219C16.9632 12.5499 17.054 11.7652 17.6232 11.744C22.9617 11.5448 27.8454 13.1287 31.3584 16.6418C34.8716 20.1549 36.4554 25.0386 36.2562 30.3771C36.235 30.9464 35.4502 31.0372 35.2783 30.5025C33.9445 26.3538 31.7186 22.5757 28.5715 19.4286ZM9.25168 15.9191C8.66679 15.9282 8.57834 16.7378 9.13421 16.8962C14.2878 18.3641 19.053 21.0578 22.9976 25.0023C26.9423 28.947 29.6359 33.7122 31.1039 38.8659C31.2622 39.4218 32.0719 39.3334 32.081 38.7485C32.1792 32.453 30.1228 26.5537 25.7845 22.2155C21.4463 17.8773 15.5471 15.8209 9.25168 15.9191ZM0.37647 20.654C6.63083 22.3712 12.525 25.6773 17.4238 30.5761C22.3227 35.475 25.6288 41.3691 27.346 47.6235C27.5012 48.1888 28.3142 48.0929 28.3091 47.5004C28.246 40.2229 25.5659 33.1445 20.2107 27.7893C14.8555 22.4341 7.77706 19.754 0.49956 19.6909C-0.0928798 19.6858 -0.188817 20.4988 0.37647 20.654Z" fill="url(#paint0_linear_1442_1580)"/>
<defs>
<linearGradient id="paint0_linear_1442_1580" x1="48" y1="-1.50502e-06" x2="-3.48836e-05" y2="48" gradientUnits="userSpaceOnUse">
<stop stop-color="#FB049C"/>
<stop offset="1" stop-color="#4F02FF"/>
</linearGradient>
</defs>
</svg>
