<svg width="48" height="48" viewBox="0 0 48 48" fill="none" xmlns="http://www.w3.org/2000/svg">
<g clip-path="url(#clip0_1545_1064)">
<path fill-rule="evenodd" clip-rule="evenodd" d="M34.596 11.99L39.586 7C39.976 6.61 40.61 6.61 41 7L41.664 7.75L41.662 7.752C45.598 12.026 48 17.732 48 24C48 37.254 37.254 48 24 48C10.746 48 0 37.254 0 24C0 10.746 10.746 0 24 0C28.756 0 33.19 1.384 36.918 3.77C37.444 4.106 37.504 4.838 37.064 5.28C36.72 5.624 36.18 5.67 35.77 5.41C32.366 3.25 28.33 2 24 2C11.85 2 2 11.85 2 24C2 36.15 11.85 46 24 46C36.15 46 46 36.15 46 24C46 18.284 43.82 13.078 40.248 9.166L36.704 12.71C39.518 15.934 40.912 19.964 40.872 23.986C40.83 28.286 39.158 32.574 35.848 35.818C35.238 36.418 34.594 36.96 33.922 37.444C33.972 37.622 34 37.808 34 38C34 39.104 33.104 40 32 40C31.412 40 30.884 39.746 30.518 39.342C28.44 40.198 26.226 40.614 24.014 40.592C19.778 40.55 15.554 38.904 12.358 35.642C9.186 32.406 7.616 28.19 7.658 23.986C7.682 21.576 8.232 19.172 9.312 16.964C9.012 16.748 8.816 16.398 8.816 16C8.816 15.346 9.346 14.816 10 14.816C10.178 14.816 10.348 14.856 10.5 14.928C11.088 14.072 11.766 13.26 12.534 12.506C15.672 9.43 19.746 7.886 23.82 7.878H24.014C27.812 7.916 31.596 9.286 34.596 11.99V11.99ZM34.58 12.006C33.918 11.434 33.214 10.914 32.466 10.456C29.98 8.936 27.114 8.15 24.206 8.128H24.014C19.97 8.168 15.94 9.746 12.888 12.858C12.146 13.614 11.498 14.428 10.94 15.282C11.092 15.48 11.184 15.73 11.184 16C11.184 16.654 10.654 17.184 10 17.184C9.962 17.184 9.922 17.182 9.884 17.178C8.876 19.328 8.384 21.658 8.408 23.986C8.448 27.966 10 31.932 13.064 34.936C16.104 37.914 20.066 39.382 24.014 39.342C26.058 39.322 28.098 38.896 30.002 38.064C30 38.042 30 38.022 30 38C30 36.896 30.896 36 32 36C32.38 36 32.736 36.106 33.04 36.292C33.652 35.832 34.236 35.322 34.788 34.758C37.72 31.768 39.16 27.87 39.122 23.986C39.086 20.444 37.81 16.918 35.302 14.112L32.446 16.968C33.69 18.504 34.458 20.294 34.746 22.144C35.48 22.44 36 23.16 36 24C36 24.866 35.448 25.604 34.678 25.882C34.276 27.98 33.254 29.98 31.606 31.576C29.49 33.626 26.748 34.638 24.014 34.594C21.314 34.55 18.626 33.49 16.6 31.4C15.478 30.242 14.676 28.89 14.194 27.458C14.132 27.466 14.066 27.47 14 27.47C13.188 27.47 12.53 26.812 12.53 26C12.53 25.304 13.014 24.722 13.664 24.568C13.656 24.374 13.654 24.18 13.656 23.986C13.698 21.348 14.736 18.726 16.778 16.748C18.794 14.794 21.41 13.836 24.014 13.876C26.274 13.912 28.524 14.7 30.344 16.242L34.58 12.006V12.006ZM30.322 16.264L26.032 20.554C25.436 20.202 24.742 20 24 20C21.79 20 20 21.79 20 24C20 26.21 21.79 28 24 28C26.21 28 28 26.21 28 24C28 23.258 27.798 22.564 27.446 21.968L31.048 18.366C32.016 19.534 32.648 20.89 32.938 22.304C32.376 22.658 32 23.286 32 24C32 24.734 32.396 25.376 32.986 25.724C32.682 27.47 31.87 29.148 30.546 30.516C28.76 32.36 26.396 33.306 24.014 33.344C21.602 33.382 19.176 32.502 17.308 30.692C16.232 29.65 15.456 28.418 14.978 27.098C15.28 26.828 15.47 26.436 15.47 26C15.47 25.34 15.034 24.782 14.436 24.596C14.42 24.392 14.41 24.188 14.406 23.986C14.366 21.508 15.274 19.02 17.13 17.102C19.012 15.158 21.506 14.166 24.014 14.126C26.242 14.092 28.478 14.804 30.322 16.264V16.264ZM26 24C26 25.104 25.104 26 24 26C22.896 26 22 25.104 22 24C22 22.896 22.896 22 24 22C25.104 22 26 22.896 26 24Z" fill="url(#paint0_linear_1545_1064)"/>
</g>
<defs>
<linearGradient id="paint0_linear_1545_1064" x1="48" y1="-1.50502e-06" x2="-1.00881e-05" y2="48" gradientUnits="userSpaceOnUse">
<stop stop-color="#FB049C"/>
<stop offset="1" stop-color="#4F02FF"/>
</linearGradient>
<clipPath id="clip0_1545_1064">
<rect width="48" height="48" fill="white"/>
</clipPath>
</defs>
</svg>
