<svg width="24" height="24" viewBox="0 0 24 24" fill="none" xmlns="http://www.w3.org/2000/svg">
<g clip-path="url(#clip0_2488_1617)">
<path fill-rule="evenodd" clip-rule="evenodd" d="M14.1516 0.776537C14.2531 0.48746 14.075 0.174762 13.7719 0.129909C13.1937 0.0443318 12.602 0 12 0C5.37258 0 0 5.37258 0 12C0 18.6274 5.37258 24 12 24C18.2683 24 23.4141 19.1938 23.9533 13.0656C23.9835 12.7222 23.5853 12.5023 23.2631 12.6247C23.0966 12.6878 22.97 12.8375 22.9538 13.0147C22.4417 18.6142 17.733 23 12 23C5.92487 23 1 18.0751 1 12C1 5.92487 5.92487 1 12 1C12.5378 1 13.0667 1.0386 13.5839 1.11318C13.8293 1.14858 14.0695 1.01053 14.1516 0.776537ZM16.109 1.25666L16.3039 0.702432C16.5704 -0.0549709 17.5623 -0.246029 18.0957 0.357316L19.7233 2.19842C19.9187 2.41944 20.1988 2.54889 20.4953 2.55514L22.9648 2.60719C23.7741 2.62425 24.264 3.50001 23.8497 4.18912L22.5856 6.29194C22.4339 6.54437 22.3962 6.84839 22.4818 7.1297L23.195 9.47309C23.4287 10.241 22.7395 10.9733 21.9501 10.7959L19.5413 10.2544C19.2521 10.1894 18.9487 10.2478 18.7051 10.4155L16.6764 11.8117C16.0115 12.2693 15.0957 11.8461 15.0221 11.0473L14.7974 8.60982C14.7705 8.31721 14.6206 8.04932 14.3845 7.87159L12.4175 6.39113C11.7729 5.90597 11.896 4.91213 12.6399 4.59591L14.9099 3.63096C15.1824 3.51512 15.3933 3.2911 15.4909 3.01365L16.1005 1.28085C16.1017 1.27692 16.1031 1.27298 16.1044 1.26906C16.1059 1.26489 16.1074 1.26076 16.109 1.25666ZM5.40209 19.5147C4.81847 19.0019 4.29508 18.4221 3.84391 17.7874C8.23449 15.0127 10.9779 12.1614 12.4248 8.00673L13.4851 8.8066L13.648 10.5778C13.8348 12.6087 16.1578 13.6846 17.8443 12.5212L19.3152 11.5066L20.9345 11.8715C18.033 16.0849 12.6 18.5049 5.40209 19.5147Z" fill="url(#paint0_linear_2488_1617)"/>
</g>
<defs>
<linearGradient id="paint0_linear_2488_1617" x1="24" y1="-7.52509e-07" x2="-7.90507e-06" y2="24" gradientUnits="userSpaceOnUse">
<stop stop-color="#FB049C"/>
<stop offset="1" stop-color="#4F02FF"/>
</linearGradient>
<clipPath id="clip0_2488_1617">
<rect width="24" height="24" fill="white"/>
</clipPath>
</defs>
</svg>
