<svg width="1200" height="377" viewBox="0 0 1200 377" fill="none" preserveAspectRatio="none" xmlns="http://www.w3.org/2000/svg">
<path fill-rule="evenodd" clip-rule="evenodd" d="M366.235 0H0V4.04371H85.1175C101.451 4.04371 115.679 6.73952 127.803 12.1311C139.926 17.5228 149.271 25.2732 155.838 35.3825C162.405 45.4918 165.689 57.286 165.689 70.765C165.689 84.2441 162.405 96.0383 155.838 106.148C149.271 116.257 139.926 124.007 127.803 129.399C115.679 134.791 101.451 137.486 85.1175 137.486H59.6075V180.956H0V220.497H73.7215C87.8679 220.497 100.191 222.829 110.692 227.492C121.192 232.155 129.286 238.858 134.974 247.601C140.662 256.344 143.505 266.545 143.505 278.202C143.505 289.86 140.662 300.06 134.974 308.803C129.286 317.546 121.192 324.25 110.692 328.913C100.191 333.576 87.8679 335.907 73.7215 335.907H51.6269V373.503H0V377H403.722H588.279H1200V373.503V180.956V0H366.235ZM366.235 0C347.207 0 330.117 3.95947 314.962 11.8784C299.808 19.7974 287.937 30.8333 279.349 44.9863C270.762 58.9709 266.468 74.8087 266.468 92.5C266.468 110.191 270.762 126.113 279.349 140.266C287.937 154.251 299.808 165.203 314.962 173.122C330.117 181.041 347.207 185 366.235 185C385.262 185 402.353 181.041 417.507 173.122C432.662 165.203 444.533 154.251 453.12 140.266C461.708 126.113 466.001 110.191 466.001 92.5C466.001 74.8087 461.708 58.9709 453.12 44.9863C444.533 30.8333 432.662 19.7974 417.507 11.8784C402.353 3.95947 385.262 0 366.235 0ZM1200 180.956H1136.35L1106.29 136.475H1090.13V180.956H1030.52V4.04371H1115.64C1131.97 4.04371 1146.2 6.73952 1158.33 12.1311C1170.45 17.5228 1179.79 25.2732 1186.36 35.3825C1192.93 45.4918 1196.21 57.286 1196.21 70.765C1196.21 83.4016 1193.35 94.4376 1187.62 103.873C1181.9 113.308 1173.65 120.806 1162.87 126.366L1200 180.956ZM1200 373.503L1199.56 220.497H1157.12L1108.56 302.027L1058.68 220.497H1016.24V373.503H1063.28V306.18L1096.53 359.732H1119.28L1152.53 303.776L1152.97 373.503H1200ZM588.279 377C599.8 377 611.54 375.324 623.499 371.973C635.457 368.621 645.958 363.812 655 357.546V292.847H610.154V331.536C604.175 334.013 597.904 335.251 591.341 335.251C580.257 335.251 571.361 331.754 564.653 324.76C558.09 317.765 554.809 308.512 554.809 297C554.809 285.197 558.163 275.871 564.871 269.022C571.58 262.173 580.622 258.749 591.997 258.749C605.269 258.749 616.717 264.359 626.342 275.579L659.375 246.508C651.5 236.891 641.583 229.605 629.624 224.65C617.811 219.55 604.394 217 589.372 217C572.747 217 557.798 220.424 544.527 227.273C531.401 233.976 521.12 243.448 513.682 255.689C506.39 267.783 502.744 281.554 502.744 297C502.744 312.446 506.39 326.29 513.682 338.53C521.12 350.625 531.328 360.097 544.308 366.945C557.288 373.648 571.945 377 588.279 377ZM403.722 377C420.202 377 435.004 373.576 448.13 366.727C461.255 359.878 471.537 350.406 478.975 338.311C486.412 326.071 490.131 312.301 490.131 297C490.131 281.699 486.412 268.002 478.975 255.907C471.537 243.667 461.255 234.122 448.13 227.273C435.004 220.424 420.202 217 403.722 217C387.242 217 372.439 220.424 359.314 227.273C346.188 234.122 335.907 243.667 328.469 255.907C321.031 268.002 317.312 281.699 317.312 297C317.312 312.301 321.031 326.071 328.469 338.311C335.907 350.406 346.188 359.878 359.314 366.727C372.439 373.576 387.242 377 403.722 377ZM366.235 136.728C373.643 136.728 380.295 134.959 386.188 131.421C392.25 127.714 397.049 122.575 400.585 116.004C404.121 109.265 405.889 101.43 405.889 92.5C405.889 83.5701 404.121 75.8197 400.585 69.2486C397.049 62.5091 392.25 57.3702 386.188 53.832C380.295 50.1252 373.643 48.2719 366.235 48.2719C358.826 48.2719 352.09 50.1252 346.029 53.832C340.135 57.3702 335.421 62.5091 331.885 69.2486C328.349 75.8197 326.58 83.5701 326.58 92.5C326.58 101.43 328.349 109.265 331.885 116.004C335.421 122.575 340.135 127.714 346.029 131.421C352.09 134.959 358.826 136.728 366.235 136.728ZM99.5143 86.1817C95.4731 89.7199 89.4113 91.4891 81.3289 91.4891H59.6075V50.041H81.3289C89.4113 50.041 95.4731 51.8944 99.5143 55.6011C103.555 59.1393 105.576 64.194 105.576 70.765C105.576 77.3361 103.555 82.475 99.5143 86.1817ZM185.238 4.04371H244.845V180.956H185.238V4.04371ZM661.912 180.956V4.04371H603.82V84.4126L536.635 4.04371H487.636V180.956H545.728V100.587L612.913 180.956H661.912ZM837.631 180.956V135.97H749.23V112.719H823.992V69.7541H749.23V49.0301H834.347V4.04371H690.633V180.956H837.631ZM1007.58 180.956V135.97H919.175V112.719H993.937V69.7541H919.175V49.0301H1004.29V4.04371H860.578V180.956H1007.58ZM1130.04 55.6011C1134.08 59.1393 1136.1 64.194 1136.1 70.765C1136.1 77.3361 1134.08 82.475 1130.04 86.1817C1126 89.7199 1119.93 91.4891 1111.85 91.4891H1090.13V50.041H1111.85C1119.93 50.041 1126 51.8944 1130.04 55.6011ZM403.722 335.251C410.139 335.251 415.899 333.721 421.004 330.661C426.254 327.455 430.41 323.011 433.473 317.328C436.535 311.499 438.067 304.723 438.067 297C438.067 289.277 436.535 282.574 433.473 276.891C430.41 271.062 426.254 266.617 421.004 263.557C415.899 260.352 410.139 258.749 403.722 258.749C397.305 258.749 391.471 260.352 386.221 263.557C381.117 266.617 377.033 271.062 373.971 276.891C370.908 282.574 369.377 289.277 369.377 297C369.377 304.723 370.908 311.499 373.971 317.328C377.033 323.011 381.117 327.455 386.221 330.661C391.471 333.721 397.305 335.251 403.722 335.251ZM70.4401 296.126C77.4404 296.126 82.6906 294.596 86.1908 291.536C89.6909 288.33 91.4409 283.885 91.4409 278.202C91.4409 272.519 89.6909 268.148 86.1908 265.087C82.6906 261.882 77.4404 260.279 70.4401 260.279H51.6269V296.126H70.4401ZM212.064 335.033H226.064L252.097 373.503H307.224L275.066 326.29C284.4 321.481 291.546 314.996 296.505 306.836C301.463 298.676 303.942 289.131 303.942 278.202C303.942 266.545 301.098 256.344 295.411 247.601C289.723 238.858 281.629 232.155 271.129 227.492C260.628 222.829 248.305 220.497 234.158 220.497H160.437V373.503H212.064V335.033ZM246.628 265.087C250.128 268.148 251.878 272.519 251.878 278.202C251.878 283.885 250.128 288.33 246.628 291.536C243.128 294.596 237.877 296.126 230.877 296.126H212.064V260.279H230.877C237.877 260.279 243.128 261.882 246.628 265.087ZM742.624 335.033H728.624V373.503H676.997V220.497H750.718C764.865 220.497 777.188 222.829 787.689 227.492C798.189 232.155 806.283 238.858 811.971 247.601C817.659 256.344 820.502 266.545 820.502 278.202C820.502 289.131 818.023 298.676 813.065 306.836C808.106 314.996 800.96 321.481 791.626 326.29L823.784 373.503H768.657L742.624 335.033ZM768.438 278.202C768.438 272.519 766.688 268.148 763.188 265.087C759.688 261.882 754.437 260.279 747.437 260.279H728.624V296.126H747.437C754.437 296.126 759.688 294.596 763.188 291.536C766.688 288.33 768.438 283.885 768.438 278.202ZM890.155 346.836L879.874 373.503H827.372L894.312 220.497H945.064L1012 373.503H958.627L948.345 346.836H890.155ZM934.126 309.678L919.25 271.208L904.375 309.678H934.126Z" fill="#120519"/>
</svg>
