<svg width="366" height="366" viewBox="0 0 366 366" fill="none" xmlns="http://www.w3.org/2000/svg">
<path fill-rule="evenodd" clip-rule="evenodd" d="M56 312L56 366H55L55 312H0V311H55V248H0V247H55L55 184H0V183H55L55 120H0V119H55V56H0V55H55L55 0H56L56 55H119V0H120V55H183V0H184V55H247V0H248V55H311V0H312V55H366V56H312V119H366V120H312V183H366V184H312V247H366V248H312V311H366V312H312V366H311V312H248V366H247V312H184V366H183V312H120V366H119V312H56ZM56 311H119L119 248H56V311ZM56 247H119V184H56L56 247ZM56 183H119V120H56L56 183ZM56 119H119L119 56H56V119ZM120 56L120 119H183V56H120ZM184 56V119H247V56H184ZM248 56V119H311V56H248ZM311 120H248L248 183H311V120ZM311 184H248V247H311V184ZM311 248H248V311H311V248ZM247 311V248H184V311H247ZM183 311V248H120L120 311H183ZM120 247H183V184H120V247ZM120 183H183L183 120H120V183ZM184 120L184 183H247L247 120H184ZM247 184H184V247H247V184Z" fill="#39114D" fill-opacity="0.25"/>
<path fill-rule="evenodd" clip-rule="evenodd" d="M56 53H55V55L53 55V56H55V58H56V56H58V55L56 55V53ZM120 53H119V55L117 55V56H119V58H120V56H122V55L120 55V53ZM183 53H184V55L186 55V56H184V58H183V56H181V55L183 55V53ZM248 53H247V55L245 55V56H247V58H248V56H250V55L248 55V53ZM311 53H312V55L314 55V56H312V58H311V56H309V55L311 55V53ZM56 117H55V119H53V120H55V122H56V120H58V119H56V117ZM120 117H119V119H117V120H119V122H120V120H122V119H120V117ZM183 117H184V119H186V120H184V122H183V120H181V119H183V117ZM248 117H247V119H245V120H247V122H248V120H250V119H248V117ZM311 117H312V119H314V120H312V122H311V120H309V119H311V117ZM55 181H56V183H58V184H56V186H55V184H53V183H55V181ZM119 181H120V183H122V184H120V186H119V184H117V183H119V181ZM184 181H183V183H181V184H183V186H184V184H186V183H184V181ZM247 181H248V183H250V184H248V186H247V184H245V183H247V181ZM312 181H311V183H309V184H311V186H312V184H314V183H312V181ZM56 245H55V247H53V248H55V250H56V248H58V247H56V245ZM120 245H119V247H117V248H119V250H120V248H122V247H120V245ZM183 245H184V247H186V248H184V250H183V248H181V247H183V245ZM248 245H247V247H245V248H247V250H248V248H250V247H248V245ZM311 245H312V247H314V248H312V250H311V248H309V247H311V245ZM55 309H56V311H58V312H56V314H55V312H53V311H55V309ZM119 309H120V311H122V312H120V314H119V312H117V311H119V309ZM184 309H183V311H181V312H183V314H184V312H186V311H184V309ZM247 309H248V311H250V312H248V314H247V312H245V311H247V309ZM312 309H311V311H309V312H311V314H312V312H314V311H312V309Z" fill="#39114D" fill-opacity="0.75"/>
</svg>
