<svg width="176" height="48" viewBox="0 0 176 48" fill="none" xmlns="http://www.w3.org/2000/svg">
<path d="M0.5 47.5V0.5H175.5V39.7929L167.793 47.5H0.5Z" stroke="#39114D"/>
<path fill-rule="evenodd" clip-rule="evenodd" d="M167.876 45L173 40V3H11H8V6L3 11V14L8 9V12L3 17V20L8 15V18L3 23V26L8 21V24L3 29V32L8 27V30L3 35V38L8 33V36L3 41V44L8 39V42L5 45H8H167.876ZM6 5L3 8V5L6 2V5Z" fill="#39114D" fill-opacity="0.25"/>
<path d="M160 48L176 32V39.5L167.5 48H160Z" fill="#39114D"/>
<path d="M40 4H1V1H43L40 4Z" fill="#39114D"/>
<path d="M77.8281 26.0078C77.8281 25.8047 77.8099 25.6198 77.7734 25.4531C77.737 25.2865 77.6589 25.1328 77.5391 24.9922C77.4245 24.8516 77.2552 24.7109 77.0312 24.5703C76.8125 24.4297 76.526 24.2839 76.1719 24.1328C75.75 23.9557 75.3411 23.7682 74.9453 23.5703C74.5495 23.3672 74.1927 23.1328 73.875 22.8672C73.5573 22.6016 73.3047 22.2891 73.1172 21.9297C72.9349 21.5651 72.8438 21.138 72.8438 20.6484C72.8438 20.1693 72.9297 19.7344 73.1016 19.3438C73.2786 18.9531 73.5286 18.6198 73.8516 18.3438C74.1745 18.0625 74.5521 17.8464 74.9844 17.6953C75.4219 17.5443 75.9089 17.4688 76.4453 17.4688C77.1745 17.4688 77.8047 17.6198 78.3359 17.9219C78.8724 18.224 79.2865 18.638 79.5781 19.1641C79.875 19.6901 80.0234 20.2943 80.0234 20.9766H77.7422C77.7422 20.6536 77.6953 20.3698 77.6016 20.125C77.513 19.875 77.3698 19.6797 77.1719 19.5391C76.974 19.3984 76.7188 19.3281 76.4062 19.3281C76.1146 19.3281 75.8724 19.388 75.6797 19.5078C75.4922 19.6224 75.3516 19.7812 75.2578 19.9844C75.1693 20.1823 75.125 20.4062 75.125 20.6562C75.125 20.8438 75.1693 21.013 75.2578 21.1641C75.3516 21.3099 75.4792 21.4427 75.6406 21.5625C75.8021 21.6771 75.9922 21.7891 76.2109 21.8984C76.4349 22.0078 76.6797 22.1146 76.9453 22.2188C77.4609 22.4219 77.9167 22.6458 78.3125 22.8906C78.7083 23.1302 79.0391 23.401 79.3047 23.7031C79.5703 24 79.7708 24.3359 79.9062 24.7109C80.0417 25.0859 80.1094 25.513 80.1094 25.9922C80.1094 26.4661 80.026 26.8984 79.8594 27.2891C79.6979 27.6745 79.4609 28.0078 79.1484 28.2891C78.8359 28.5651 78.4583 28.7786 78.0156 28.9297C77.5781 29.0807 77.0885 29.1562 76.5469 29.1562C76.0208 29.1562 75.5234 29.0833 75.0547 28.9375C74.5859 28.7865 74.1719 28.5599 73.8125 28.2578C73.4583 27.9505 73.1797 27.5625 72.9766 27.0938C72.7734 26.6198 72.6719 26.0599 72.6719 25.4141H74.9609C74.9609 25.7578 74.9948 26.0521 75.0625 26.2969C75.1302 26.5365 75.2344 26.7292 75.375 26.875C75.5156 27.0156 75.6875 27.1224 75.8906 27.1953C76.099 27.263 76.3359 27.2969 76.6016 27.2969C76.9036 27.2969 77.1432 27.2396 77.3203 27.125C77.5026 27.0104 77.6328 26.8568 77.7109 26.6641C77.7891 26.4714 77.8281 26.2526 77.8281 26.0078ZM88.1797 27.1094V29H83.2344V27.1094H88.1797ZM83.9453 17.625V29H81.6562V17.625H83.9453ZM87.5156 22.2344V24.0703H83.2344V22.2344H87.5156ZM88.1641 17.625V19.5234H83.2344V17.625H88.1641ZM95.8281 27.1094V29H91.1016V27.1094H95.8281ZM91.8047 17.625V29H89.5156V17.625H91.8047ZM103.484 27.1094V29H98.7578V27.1094H103.484ZM99.4609 17.625V29H97.1719V17.625H99.4609Z" fill="#6A3983"/>
</svg>
