<svg width="176" height="48" viewBox="0 0 176 48" fill="none" xmlns="http://www.w3.org/2000/svg">
<path d="M175.5 0.5V47.5H0.5V8.20711L8.20711 0.5H175.5Z" stroke="#39114D"/>
<path fill-rule="evenodd" clip-rule="evenodd" d="M8.12422 3L3 8V45H165H168V42L173 37V34L168 39V36L173 31V28L168 33V30L173 25V22L168 27V24L173 19V16L168 21V18L173 13V10L168 15V12L173 7V4L168 9V6L171 3H168H8.12422ZM170 43L173 40V43L170 46V43Z" fill="#39114D" fill-opacity="0.25"/>
<path d="M137 43H175V47H133L137 43Z" fill="#39114D"/>
<path d="M16 0L0 16V8.5L8.5 0H16Z" fill="#39114D"/>
<path d="M79.3594 24.0391H77.0234L77.0156 22.3828H79C79.3125 22.3828 79.5677 22.3307 79.7656 22.2266C79.9688 22.1172 80.1172 21.9583 80.2109 21.75C80.3099 21.5365 80.3594 21.276 80.3594 20.9688C80.3594 20.625 80.3125 20.349 80.2188 20.1406C80.1302 19.9271 79.987 19.7708 79.7891 19.6719C79.5964 19.5729 79.3411 19.5234 79.0234 19.5234H77.8047V29H75.5156V17.625H79.0234C79.5911 17.625 80.099 17.6875 80.5469 17.8125C80.9948 17.9375 81.3724 18.1276 81.6797 18.3828C81.9922 18.638 82.2318 18.9609 82.3984 19.3516C82.5651 19.7422 82.6484 20.2031 82.6484 20.7344C82.6484 21.2031 82.5547 21.6354 82.3672 22.0312C82.1797 22.4271 81.8854 22.7526 81.4844 23.0078C81.0885 23.2578 80.5703 23.3958 79.9297 23.4219L79.3594 24.0391ZM79.2734 29H76.375L77.2891 27.1094H79.2734C79.5807 27.1094 79.8255 27.0443 80.0078 26.9141C80.1901 26.7839 80.3229 26.6094 80.4062 26.3906C80.4948 26.1667 80.5391 25.9115 80.5391 25.625C80.5391 25.3021 80.5 25.0208 80.4219 24.7812C80.349 24.5417 80.2266 24.3594 80.0547 24.2344C79.8828 24.1042 79.651 24.0391 79.3594 24.0391H77.3906L77.4062 22.3828H79.7969L80.3359 23.0391C80.9453 23.0182 81.4323 23.1354 81.7969 23.3906C82.1615 23.6406 82.4219 23.9688 82.5781 24.375C82.7396 24.776 82.8203 25.2031 82.8203 25.6562C82.8203 26.3854 82.6823 27 82.4062 27.5C82.1354 27.9948 81.737 28.3698 81.2109 28.625C80.6849 28.875 80.0391 29 79.2734 29ZM89.6094 17.625H91.8906V25.4375C91.8906 26.3125 91.7292 27.026 91.4062 27.5781C91.0885 28.125 90.6484 28.526 90.0859 28.7812C89.5234 29.0312 88.8802 29.1562 88.1562 29.1562C87.4271 29.1562 86.7786 29.0312 86.2109 28.7812C85.6432 28.526 85.2005 28.125 84.8828 27.5781C84.5703 27.026 84.4141 26.3125 84.4141 25.4375V17.625H86.6953V25.4375C86.6953 25.9323 86.75 26.3125 86.8594 26.5781C86.974 26.8438 87.138 27.026 87.3516 27.125C87.5703 27.2188 87.8385 27.2656 88.1562 27.2656C88.4792 27.2656 88.7448 27.2188 88.9531 27.125C89.1667 27.026 89.3281 26.8438 89.4375 26.5781C89.5521 26.3125 89.6094 25.9323 89.6094 25.4375V17.625ZM95.3281 17.625L97.0625 22.75L98.7812 17.625H101.273L98.2109 24.8672V29H95.9062V24.8672L92.8438 17.625H95.3281Z" fill="#6A3983"/>
</svg>
