<svg width="340" height="262" viewBox="0 0 340 262" fill="none" xmlns="http://www.w3.org/2000/svg">
<path fill-rule="evenodd" clip-rule="evenodd" d="M336 1C336 0.723858 336.224 0.5 336.5 0.5C336.776 0.5 337 0.723858 337 1V2H339C339.552 2 340 2.44772 340 3V37C340 37.5523 339.552 38 339 38H337V42C337 42.2761 336.776 42.5 336.5 42.5C336.224 42.5 336 42.2761 336 42V38H334C333.448 38 333 37.5523 333 37V3C333 2.44772 333.448 2 334 2H336V1ZM327 29.5C327 29.2239 327.224 29 327.5 29C327.776 29 328 29.2239 328 29.5V36.5H330C330.552 36.5 331 36.9477 331 37.5V50.5C331 51.0523 330.552 51.5 330 51.5H328V55.5C328 55.7761 327.776 56 327.5 56C327.224 56 327 55.7761 327 55.5V51.5H325C324.448 51.5 324 51.0523 324 50.5V37.5C324 36.9477 324.448 36.5 325 36.5H327V29.5ZM300.5 50C300.224 50 300 50.2239 300 50.5V54.5H298C297.448 54.5 297 54.9477 297 55.5V74.5C297 75.0523 297.448 75.5 298 75.5H300.5H303C303.552 75.5 304 75.0523 304 74.5V55.5C304 54.9477 303.552 54.5 303 54.5H301V50.5C301 50.2239 300.776 50 300.5 50ZM282 53.5C282 53.2239 282.224 53 282.5 53C282.776 53 283 53.2239 283 53.5V59H285C285.552 59 286 59.4477 286 60V61C286 61.5523 285.552 62 285 62H283V76.5C283 76.7761 282.776 77 282.5 77C282.224 77 282 76.7761 282 76.5V62H280C279.448 62 279 61.5523 279 61V60C279 59.4477 279.448 59 280 59H282V53.5ZM273.5 53C273.224 53 273 53.2239 273 53.5V60.5H271C270.448 60.5 270 60.9477 270 61.5V79C270 79.5523 270.448 80 271 80H273V87C273 87.2761 273.224 87.5 273.5 87.5C273.776 87.5 274 87.2761 274 87V80H276C276.552 80 277 79.5523 277 79V61.5C277 60.9477 276.552 60.5 276 60.5H274V53.5C274 53.2239 273.776 53 273.5 53ZM264 56.5C264 56.2239 264.224 56 264.5 56C264.776 56 265 56.2239 265 56.5V87.5H267C267.552 87.5 268 87.9477 268 88.5V101.5C268 102.052 267.552 102.5 267 102.5H265V120C265 120.276 264.776 120.5 264.5 120.5C264.224 120.5 264 120.276 264 120V102.5H262C261.448 102.5 261 102.052 261 101.5V88.5C261 87.9477 261.448 87.5 262 87.5H264V56.5ZM228.5 33.5C228.224 33.5 228 33.7239 228 34V47H226C225.448 47 225 47.4477 225 48V79C225 79.5523 225.448 80 226 80H228V81C228 81.2761 228.224 81.5 228.5 81.5C228.776 81.5 229 81.2761 229 81V80H231C231.552 80 232 79.5523 232 79V48C232 47.4477 231.552 47 231 47H229V34C229 33.7239 228.776 33.5 228.5 33.5ZM219 70C219 69.7239 219.224 69.5 219.5 69.5C219.776 69.5 220 69.7239 220 70V77H222C222.552 77 223 77.4477 223 78V92.5C223 93.0523 222.552 93.5 222 93.5H220V106.5C220 106.776 219.776 107 219.5 107C219.224 107 219 106.776 219 106.5V93.5H217C216.448 93.5 216 93.0523 216 92.5V78C216 77.4477 216.448 77 217 77H219V70ZM201.5 83C201.224 83 201 83.2239 201 83.5V87.5H199C198.448 87.5 198 87.9477 198 88.5V94C198 94.5523 198.448 95 199 95H201V120C201 120.276 201.224 120.5 201.5 120.5C201.776 120.5 202 120.276 202 120V95H204C204.552 95 205 94.5523 205 94V88.5C205 87.9477 204.552 87.5 204 87.5H202V83.5C202 83.2239 201.776 83 201.5 83ZM183 53.5C183 53.2239 183.224 53 183.5 53C183.776 53 184 53.2239 184 53.5V68H186C186.552 68 187 68.4477 187 69V70C187 70.5523 186.552 71 186 71H184V75C184 75.2761 183.776 75.5 183.5 75.5C183.224 75.5 183 75.2761 183 75V71H181C180.448 71 180 70.5523 180 70V69C180 68.4477 180.448 68 181 68H183V53.5ZM174.5 69.5C174.224 69.5 174 69.7239 174 70V71H172C171.448 71 171 71.4477 171 72V82C171 82.5523 171.448 83 172 83H174V93C174 93.2761 174.224 93.5 174.5 93.5C174.776 93.5 175 93.2761 175 93V83H177C177.552 83 178 82.5523 178 82V72C178 71.4477 177.552 71 177 71H175V70C175 69.7239 174.776 69.5 174.5 69.5ZM165 77.5C165 77.2239 165.224 77 165.5 77C165.776 77 166 77.2239 166 77.5V83H168C168.552 83 169 83.4477 169 84V101.5C169 102.052 168.552 102.5 168 102.5H166V115.5C166 115.776 165.776 116 165.5 116C165.224 116 165 115.776 165 115.5V102.5H163C162.448 102.5 162 102.052 162 101.5V84C162 83.4477 162.448 83 163 83H165V77.5ZM111.5 30.5C111.224 30.5 111 30.7239 111 31V59H109C108.448 59 108 59.4477 108 60V121C108 121.552 108.448 122 109 122H111V123C111 123.276 111.224 123.5 111.5 123.5C111.776 123.5 112 123.276 112 123V122H114C114.552 122 115 121.552 115 121V60C115 59.4477 114.552 59 114 59H112V31C112 30.7239 111.776 30.5 111.5 30.5ZM102 118C102 117.724 102.224 117.5 102.5 117.5C102.776 117.5 103 117.724 103 118V122H105C105.552 122 106 122.448 106 123V134.5C106 135.052 105.552 135.5 105 135.5H103V142.5C103 142.776 102.776 143 102.5 143C102.224 143 102 142.776 102 142.5V135.5H100C99.4477 135.5 99 135.052 99 134.5V123C99 122.448 99.4477 122 100 122H102V118ZM84.5 90.5C84.2239 90.5 84 90.7239 84 91V137H82C81.4477 137 81 137.448 81 138V146.5C81 147.052 81.4477 147.5 82 147.5H84V172.5C84 172.776 84.2239 173 84.5 173C84.7761 173 85 172.776 85 172.5V147.5H87C87.5523 147.5 88 147.052 88 146.5V138C88 137.448 87.5523 137 87 137H85V91C85 90.7239 84.7761 90.5 84.5 90.5ZM75 118C75 117.724 75.2239 117.5 75.5 117.5C75.7761 117.5 76 117.724 76 118V149H78C78.5523 149 79 149.448 79 150V202C79 202.552 78.5523 203 78 203H75.5H73C72.4477 203 72 202.552 72 202V150C72 149.448 72.4477 149 73 149H75V118ZM66.5 189.5C66.2239 189.5 66 189.724 66 190V203H64C63.4477 203 63 203.448 63 204V217C63 217.552 63.4477 218 64 218H66V223.5C66 223.776 66.2239 224 66.5 224C66.7761 224 67 223.776 67 223.5V218H69C69.5523 218 70 217.552 70 217V204C70 203.448 69.5523 203 69 203H67V190C67 189.724 66.7761 189.5 66.5 189.5ZM48 194.5C48 194.224 48.2239 194 48.5 194C48.7761 194 49 194.224 49 194.5V212H51C51.5523 212 52 212.448 52 213V217C52 217.552 51.5523 218 51 218H49V229.5C49 229.776 48.7761 230 48.5 230C48.2239 230 48 229.776 48 229.5V218H46C45.4477 218 45 217.552 45 217V213C45 212.448 45.4477 212 46 212H48V194.5ZM21.5 210.5C21.2239 210.5 21 210.724 21 211V230H19C18.4477 230 18 230.448 18 231V245.5C18 246.052 18.4477 246.5 19 246.5H21V252C21 252.276 21.2239 252.5 21.5 252.5C21.7761 252.5 22 252.276 22 252V246.5H24C24.5523 246.5 25 246.052 25 245.5V231C25 230.448 24.5523 230 24 230H22V211C22 210.724 21.7761 210.5 21.5 210.5ZM30 196C30 195.724 30.2239 195.5 30.5 195.5C30.7761 195.5 31 195.724 31 196V204.5H33C33.5523 204.5 34 204.948 34 205.5V229C34 229.552 33.5523 230 33 230H31V231C31 231.276 30.7761 231.5 30.5 231.5C30.2239 231.5 30 231.276 30 231V230H28C27.4477 230 27 229.552 27 229V205.5C27 204.948 27.4477 204.5 28 204.5H30V196Z" fill="#6A3983"/>
<path fill-rule="evenodd" clip-rule="evenodd" d="M120.5 30.5C120.224 30.5 120 30.7239 120 31V65H118C117.448 65 117 65.4477 117 66V79C117 79.5523 117.448 80 118 80H120V108C120 108.276 120.224 108.5 120.5 108.5C120.776 108.5 121 108.276 121 108V80H123C123.552 80 124 79.5523 124 79V66C124 65.4477 123.552 65 123 65H121V31C121 30.7239 120.776 30.5 120.5 30.5ZM129 43C129 42.7239 129.224 42.5 129.5 42.5C129.776 42.5 130 42.7239 130 43V75.5H132C132.552 75.5 133 75.9477 133 76.5V92.5C133 93.0523 132.552 93.5 132 93.5H130V94.5C130 94.7761 129.776 95 129.5 95C129.224 95 129 94.7761 129 94.5V93.5H127C126.448 93.5 126 93.0523 126 92.5V76.5C126 75.9477 126.448 75.5 127 75.5H129V43ZM237 43C237 42.7239 237.224 42.5 237.5 42.5C237.776 42.5 238 42.7239 238 43V45.5H240C240.552 45.5 241 45.9477 241 46.5V47.5C241 48.0523 240.552 48.5 240 48.5H238V73.5C238 73.7761 237.776 74 237.5 74C237.224 74 237 73.7761 237 73.5V48.5H235C234.448 48.5 234 48.0523 234 47.5V46.5C234 45.9477 234.448 45.5 235 45.5H237V43ZM246.5 42.5C246.224 42.5 246 42.7239 246 43V48.5H244C243.448 48.5 243 48.9477 243 49.5V64C243 64.5523 243.448 65 244 65H246V75C246 75.2761 246.224 75.5 246.5 75.5C246.776 75.5 247 75.2761 247 75V65H249C249.552 65 250 64.5523 250 64V49.5C250 48.9477 249.552 48.5 249 48.5H247V43C247 42.7239 246.776 42.5 246.5 42.5ZM318 46C318 45.7239 318.224 45.5 318.5 45.5C318.776 45.5 319 45.7239 319 46V50H321C321.552 50 322 50.4477 322 51V53.5C322 54.0523 321.552 54.5 321 54.5H319V55.5C319 55.7761 318.776 56 318.5 56C318.224 56 318 55.7761 318 55.5V54.5H316C315.448 54.5 315 54.0523 315 53.5V51C315 50.4477 315.448 50 316 50H318V46ZM309 50.5C309 50.2239 309.224 50 309.5 50C309.776 50 310 50.2239 310 50.5V53H312C312.552 53 313 53.4477 313 54V55C313 55.5523 312.552 56 312 56H310V67.5C310 67.7761 309.776 68 309.5 68C309.224 68 309 67.7761 309 67.5V56H307C306.448 56 306 55.5523 306 55V54C306 53.4477 306.448 53 307 53H309V50.5ZM291.5 53C291.224 53 291 53.2239 291 53.5V60.5H289C288.448 60.5 288 60.9477 288 61.5V74.5C288 75.0523 288.448 75.5 289 75.5H291.5H294C294.552 75.5 295 75.0523 295 74.5V61.5C295 60.9477 294.552 60.5 294 60.5H292V53.5C292 53.2239 291.776 53 291.5 53ZM255 62.5C255 62.2239 255.224 62 255.5 62C255.776 62 256 62.2239 256 62.5V65H258C258.552 65 259 65.4477 259 66V101.5C259 102.052 258.552 102.5 258 102.5H256V118.5C256 118.776 255.776 119 255.5 119C255.224 119 255 118.776 255 118.5V102.5H253C252.448 102.5 252 102.052 252 101.5V66C252 65.4477 252.448 65 253 65H255V62.5ZM210.5 71C210.224 71 210 71.2239 210 71.5V87.5H207.75C207.336 87.5 207 87.8358 207 88.25C207 88.6642 207.336 89 207.75 89H210V94.5C210 94.7761 210.224 95 210.5 95C210.776 95 211 94.7761 211 94.5V89H213.25C213.664 89 214 88.6642 214 88.25C214 87.8358 213.664 87.5 213.25 87.5H211V71.5C211 71.2239 210.776 71 210.5 71ZM192 67C192 66.7239 192.224 66.5 192.5 66.5C192.776 66.5 193 66.7239 193 67V71H195C195.552 71 196 71.4477 196 72V95.5C196 96.0523 195.552 96.5 195 96.5H193V117C193 117.276 192.776 117.5 192.5 117.5C192.224 117.5 192 117.276 192 117V96.5H190C189.448 96.5 189 96.0523 189 95.5V72C189 71.4477 189.448 71 190 71H192V67ZM156.5 80C156.224 80 156 80.2239 156 80.5V87.5H154C153.448 87.5 153 87.9477 153 88.5V101.5C153 102.052 153.448 102.5 154 102.5H156V123C156 123.276 156.224 123.5 156.5 123.5C156.776 123.5 157 123.276 157 123V102.5H159C159.552 102.5 160 102.052 160 101.5V88.5C160 87.9477 159.552 87.5 159 87.5H157V80.5C157 80.2239 156.776 80 156.5 80ZM147 77.5C147 77.2239 147.224 77 147.5 77C147.776 77 148 77.2239 148 77.5V78.5H150C150.552 78.5 151 78.9477 151 79.5V89.5C151 90.0523 150.552 90.5 150 90.5H148V109.5C148 109.776 147.776 110 147.5 110C147.224 110 147 109.776 147 109.5V90.5H145C144.448 90.5 144 90.0523 144 89.5V79.5C144 78.9477 144.448 78.5 145 78.5H147V77.5ZM138.5 53C138.224 53 138 53.2239 138 53.5V77H135.75C135.336 77 135 77.3358 135 77.75C135 78.1642 135.336 78.5 135.75 78.5H138V103.5C138 103.776 138.224 104 138.5 104C138.776 104 139 103.776 139 103.5V78.5H141.25C141.664 78.5 142 78.1642 142 77.75C142 77.3358 141.664 77 141.25 77H139V53.5C139 53.2239 138.776 53 138.5 53ZM93 82C93 81.7239 93.2239 81.5 93.5 81.5C93.7761 81.5 94 81.7239 94 82V135.5H96C96.5523 135.5 97 135.948 97 136.5V139C97 139.552 96.5523 140 96 140H94V150C94 150.276 93.7761 150.5 93.5 150.5C93.2239 150.5 93 150.276 93 150V140H91C90.4477 140 90 139.552 90 139V136.5C90 135.948 90.4477 135.5 91 135.5H93V82ZM57.5 207.5C57.2239 207.5 57 207.724 57 208V212H55C54.4477 212 54 212.448 54 213V217C54 217.552 54.4477 218 55 218H57V228C57 228.276 57.2239 228.5 57.5 228.5C57.7761 228.5 58 228.276 58 228V218H60C60.5523 218 61 217.552 61 217V213C61 212.448 60.5523 212 60 212H58V208C58 207.724 57.7761 207.5 57.5 207.5ZM39 197.5C39 197.224 39.2239 197 39.5 197C39.7761 197 40 197.224 40 197.5V204.5H42C42.5523 204.5 43 204.948 43 205.5V224.5C43 225.052 42.5523 225.5 42 225.5H40V231C40 231.276 39.7761 231.5 39.5 231.5C39.2239 231.5 39 231.276 39 231V225.5H37C36.4477 225.5 36 225.052 36 224.5V205.5C36 204.948 36.4477 204.5 37 204.5H39V197.5ZM3.5 229C3.22386 229 3 229.224 3 229.5V233H1C0.447715 233 0 233.448 0 234V241C0 241.552 0.447715 242 1 242H3V246.5C3 246.776 3.22386 247 3.5 247C3.77614 247 4 246.776 4 246.5V242H6C6.55228 242 7 241.552 7 241V234C7 233.448 6.55228 233 6 233H4V229.5C4 229.224 3.77614 229 3.5 229ZM12 241C12 240.724 12.2239 240.5 12.5 240.5C12.7761 240.5 13 240.724 13 241V242H15C15.5523 242 16 242.448 16 243V245.5C16 246.052 15.5523 246.5 15 246.5H13V261C13 261.276 12.7761 261.5 12.5 261.5C12.2239 261.5 12 261.276 12 261V246.5H10C9.44771 246.5 9 246.052 9 245.5V243C9 242.448 9.44772 242 10 242H12V241Z" fill="#39114D"/>
</svg>
