<svg width="300" height="300" viewBox="0 0 300 300" fill="none" xmlns="http://www.w3.org/2000/svg">
<path d="M289.646 82.6464L289.5 82.7929V83V207V207.207L289.646 207.354L293.5 211.207V292.793L289.793 296.5H6.5V211.207L10.3536 207.354L10.5 207.207V207V83V82.7929L10.3536 82.6464L6.5 78.7929V7.20711L10.2071 3.5H293.5V78.7929L289.646 82.6464Z" fill="rgba(18, 5, 25, .9)" stroke="#39114D"/>
<path fill-rule="evenodd" clip-rule="evenodd" d="M38 36H37V37H36V38H37V39H38V38H39V37H38V36ZM70 36H69V37H68V38H69V39H70V38H71V37H70V36ZM101 36H102V37H103V38H102V39H101V38H100V37H101V36ZM134 36H133V37H132V38H133V39H134V38H135V37H134V36ZM165 36H166V37H167V38H166V39H165V38H164V37H165V36ZM198 36H197V37H196V38H197V39H198V38H199V37H198V36ZM229 36H230V37H231V38H230V39H229V38H228V37H229V36ZM262 36H261V37H260V38H261V39H262V38H263V37H262V36ZM38 68H37V69H36V70H37V71H38V70H39V69H38V68ZM70 68H69V69H68V70H69V71H70V70H71V69H70V68ZM101 68H102V69H103V70H102V71H101V70H100V69H101V68ZM134 68H133V69H132V70H133V71H134V70H135V69H134V68ZM165 68H166V69H167V70H166V71H165V70H164V69H165V68ZM198 68H197V69H196V70H197V71H198V70H199V69H198V68ZM229 68H230V69H231V70H230V71H229V70H228V69H229V68ZM262 68H261V69H260V70H261V71H262V70H263V69H262V68ZM37 100H38V101H39V102H38V103H37V102H36V101H37V100ZM69 100H70V101H71V102H70V103H69V102H68V101H69V100ZM102 100H101V101H100V102H101V103H102V102H103V101H102V100ZM133 100H134V101H135V102H134V103H133V102H132V101H133V100ZM166 100H165V101H164V102H165V103H166V102H167V101H166V100ZM197 100H198V101H199V102H198V103H197V102H196V101H197V100ZM230 100H229V101H228V102H229V103H230V102H231V101H230V100ZM261 100H262V101H263V102H262V103H261V102H260V101H261V100ZM38 132H37V133H36V134H37V135H38V134H39V133H38V132ZM70 132H69V133H68V134H69V135H70V134H71V133H70V132ZM101 132H102V133H103V134H102V135H101V134H100V133H101V132ZM134 132H133V133H132V134H133V135H134V134H135V133H134V132ZM165 132H166V133H167V134H166V135H165V134H164V133H165V132ZM198 132H197V133H196V134H197V135H198V134H199V133H198V132ZM229 132H230V133H231V134H230V135H229V134H228V133H229V132ZM262 132H261V133H260V134H261V135H262V134H263V133H262V132ZM37 164H38V165H39V166H38V167H37V166H36V165H37V164ZM69 164H70V165H71V166H70V167H69V166H68V165H69V164ZM102 164H101V165H100V166H101V167H102V166H103V165H102V164ZM133 164H134V165H135V166H134V167H133V166H132V165H133V164ZM166 164H165V165H164V166H165V167H166V166H167V165H166V164ZM197 164H198V165H199V166H198V167H197V166H196V165H197V164ZM230 164H229V165H228V166H229V167H230V166H231V165H230V164ZM261 164H262V165H263V166H262V167H261V166H260V165H261V164ZM38 196H37V197H36V198H37V199H38V198H39V197H38V196ZM70 196H69V197H68V198H69V199H70V198H71V197H70V196ZM101 196H102V197H103V198H102V199H101V198H100V197H101V196ZM134 196H133V197H132V198H133V199H134V198H135V197H134V196ZM165 196H166V197H167V198H166V199H165V198H164V197H165V196ZM198 196H197V197H196V198H197V199H198V198H199V197H198V196ZM229 196H230V197H231V198H230V199H229V198H228V197H229V196ZM262 196H261V197H260V198H261V199H262V198H263V197H262V196ZM37 228H38V229H39V230H38V231H37V230H36V229H37V228ZM69 228H70V229H71V230H70V231H69V230H68V229H69V228ZM102 228H101V229H100V230H101V231H102V230H103V229H102V228ZM133 228H134V229H135V230H134V231H133V230H132V229H133V228ZM166 228H165V229H164V230H165V231H166V230H167V229H166V228ZM197 228H198V229H199V230H198V231H197V230H196V229H197V228ZM230 228H229V229H228V230H229V231H230V230H231V229H230V228ZM261 228H262V229H263V230H262V231H261V230H260V229H261V228ZM38 260H37V261H36V262H37V263H38V262H39V261H38V260ZM70 260H69V261H68V262H69V263H70V262H71V261H70V260ZM101 260H102V261H103V262H102V263H101V262H100V261H101V260ZM134 260H133V261H132V262H133V263H134V262H135V261H134V260ZM165 260H166V261H167V262H166V263H165V262H164V261H165V260ZM198 260H197V261H196V262H197V263H198V262H199V261H198V260ZM229 260H230V261H231V262H230V263H229V262H228V261H229V260ZM262 260H261V261H260V262H261V263H262V262H263V261H262V260Z" fill="#39114D" fill-opacity="0.5"/>
<path fill-rule="evenodd" clip-rule="evenodd" d="M91 0H13L6 7V15L18 3H94L91 0ZM209 300H287L294 293V285L282 297H206L209 300ZM300 287V275L298 273V225L296 223V291L300 287ZM0 25V13L4 9L4 77L2 75L2 27L0 25Z" fill="#39114D"/>
<path fill-rule="evenodd" clip-rule="evenodd" d="M291 131.5L291 127.5L294 124.5L294 128.5L291 131.5ZM291 83.5L291 87.5L294 84.5L294 80.5L291 83.5ZM291 89L291 93L294 90L294 86L291 89ZM291 98.5L291 94.5L294 91.5L294 95.5L291 98.5ZM291 100L291 104L294 101L294 97L291 100ZM291 109.5L291 105.5L294 102.5L294 106.5L291 109.5ZM291 111L291 115L294 112L294 108L291 111ZM291 120.5L291 116.5L294 113.5L294 117.5L291 120.5ZM291 122L291 126L294 123L294 119L291 122Z" fill="#39114D"/>
<path fill-rule="evenodd" clip-rule="evenodd" d="M6 209.5L6 205.5L9 202.5L9 206.5L6 209.5ZM6 161.5L6 165.5L9 162.5L9 158.5L6 161.5ZM6 167L6 171L9 168L9 164L6 167ZM6 176.5L6 172.5L9 169.5L9 173.5L6 176.5ZM6 178L6 182L9 179L9 175L6 178ZM6 187.5L6 183.5L9 180.5L9 184.5L6 187.5ZM6 189L6 193L9 190L9 186L6 189ZM6 198.5L6 194.5L9 191.5L9 195.5L6 198.5ZM6 200L6 204L9 201L9 197L6 200Z" fill="#39114D"/>
</svg>
