<svg width="24" height="20" viewBox="0 0 24 20" fill="none" xmlns="http://www.w3.org/2000/svg">
<path d="M10.5174 0.221445L0.0627425 17.4541C0.0198735 17.5248 -0.00103799 17.6039 3.96072e-05 17.6829C0.00105997 17.7577 0.0217957 17.8323 0.0622737 17.8993L1.19672 19.7778C1.23906 19.848 1.29977 19.9044 1.37113 19.9428C1.43963 19.9797 1.51796 20 1.5993 20H22.4006C22.4847 20 22.5655 19.9783 22.6357 19.9391C22.7041 19.9007 22.7623 19.8457 22.8032 19.7778L23.9377 17.8993C23.9794 17.8303 24.0002 17.7532 24 17.6761C23.9998 17.5994 23.9789 17.5227 23.9372 17.4541L13.4825 0.221445C13.434 0.141356 13.3615 0.0792814 13.2766 0.0414978C13.2161 0.0145884 13.1493 0 13.0804 0H10.9196C10.8506 0 10.7839 0.0145884 10.7234 0.0414978C10.6385 0.0792814 10.566 0.141356 10.5174 0.221445Z" fill="#892EB6"/>
</svg>
