<svg width="200" height="40" viewBox="0 0 200 40" fill="none" xmlns="http://www.w3.org/2000/svg">
<path d="M391.5 23.7928V-116.5H232H231.793L231.646 -116.646L224.793 -123.5H0.5V7.79291L8.20709 15.5H72H72.2071L72.3535 15.6465L96.2071 39.5H375.783L391.5 23.7928Z" stroke="#39114D"/>
<path d="M96 40L72 16H8L0 8V0H1V7.5858L8.41418 15H72.4142L96.4142 39H200V40H96Z" fill="#39114D"/>
<path opacity="0.25" d="M16 38H91L71 18H7L2 13V24L16 38Z" fill="#39114D"/>
<path fill-rule="evenodd" clip-rule="evenodd" d="M197 36H192L195 39H200L197 36ZM189 36H184L187 39H192L189 36ZM176 36H181L184 39H179L176 36ZM173 36H168L171 39H176L173 36ZM160 36H165L168 39H163L160 36ZM157 36H152L155 39H160L157 36ZM144 36H149L152 39H147L144 36ZM141 36H136L139 39H144L141 36ZM128 36H133L136 39H131L128 36ZM125 36H120L123 39H128L125 36ZM112 36H117L120 39H115L112 36ZM109 36H104L107 39H112L109 36ZM96 36H101L104 39H99L96 36Z" fill="#39114D"/>
</svg>
