<svg width="168" height="40" viewBox="0 0 168 40" fill="none" xmlns="http://www.w3.org/2000/svg">
<path d="M167.5 147.793V7.5H8H7.79289L7.64645 7.35355L0.792908 0.5H-223.5V131.793L-215.793 139.5H-152H-151.793L-151.646 139.646L-127.793 163.5H151.783L167.5 147.793Z" stroke="#39114D"/>
<path fill-rule="evenodd" clip-rule="evenodd" d="M8 7H168V124V148L151.99 164H128H-128L-152 140H-216L-224 132V0H1L8 7ZM0.585785 1L7.58578 8H167V124V147.586L151.576 163H128H-127.586L-151.586 139H-215.586L-223 131.586V1H0.585785Z" fill="#39114D"/>
<path fill-rule="evenodd" clip-rule="evenodd" d="M167 8H7.5L0.5 1H0V0H1L8 7H85L88 4H148V6H150V4H152V6H154V4H156V6H158V4H160V6H162V4H164V6H166V4H168V40H167V8Z" fill="#39114D"/>
<path d="M15 7H11L4 0H8L15 7Z" fill="#39114D"/>
<path d="M22 7H18L11 0H15L22 7Z" fill="#39114D"/>
<path d="M29 7H25L18 0H22L29 7Z" fill="#39114D"/>
<path d="M36 7H32L25 0H29L36 7Z" fill="#39114D"/>
</svg>
