<svg width="52" height="52" viewBox="0 0 52 52" fill="none" xmlns="http://www.w3.org/2000/svg">
<path fill-rule="evenodd" clip-rule="evenodd" d="M2.00098 26C2.00098 12.7452 12.7461 2 26.001 2C39.2558 2 50.001 12.7452 50.001 26C50.001 39.2548 39.2558 50 26.001 50C12.7461 50 2.00098 39.2548 2.00098 26ZM26.001 0C11.6416 0 0.000976562 11.6406 0.000976562 26C0.000976562 40.3594 11.6416 52 26.001 52C40.3604 52 52.001 40.3594 52.001 26C52.001 11.6406 40.3604 0 26.001 0ZM38.001 19C38.5533 19 39.001 18.5523 39.001 18C39.001 17.4477 38.5533 17 38.001 17H18.001C15.2396 17 13.001 19.2386 13.001 22L13.001 30C13.001 32.7614 15.2396 35 18.001 35H38.001C38.5533 35 39.001 34.5523 39.001 34C39.001 33.4477 38.5533 33 38.001 33H18.001C16.3441 33 15.001 31.6569 15.001 30L15.001 22C15.001 20.3431 16.3441 19 18.001 19H38.001Z" fill="white"/>
</svg>
