<svg width="52" height="52" viewBox="0 0 52 52" fill="none" xmlns="http://www.w3.org/2000/svg">
<path fill-rule="evenodd" clip-rule="evenodd" d="M2.00098 26C2.00098 12.7452 12.7461 2 26.001 2C39.2558 2 50.001 12.7452 50.001 26C50.001 39.2548 39.2558 50 26.001 50C12.7461 50 2.00098 39.2548 2.00098 26ZM26.001 0C11.6416 0 0.000976562 11.6406 0.000976562 26C0.000976562 40.3594 11.6416 52 26.001 52C40.3604 52 52.001 40.3594 52.001 26C52.001 11.6406 40.3604 0 26.001 0ZM40.001 26C40.001 21.0294 35.9715 17 31.001 17L17.001 17C15.3441 17 14.001 18.3431 14.001 20L14.001 32C14.001 33.6569 15.3441 35 17.001 35H31.001C35.9715 35 40.001 30.9706 40.001 26ZM31.001 19C34.867 19 38.001 22.134 38.001 26C38.001 29.866 34.867 33 31.001 33H17.001C16.4487 33 16.001 32.5523 16.001 32L16.001 20C16.001 19.4477 16.4487 19 17.001 19L31.001 19Z" fill="white"/>
</svg>
