<svg width="52" height="52" viewBox="0 0 52 52" fill="none" xmlns="http://www.w3.org/2000/svg">
<path fill-rule="evenodd" clip-rule="evenodd" d="M2.00098 26C2.00098 12.7452 12.7461 2 26.001 2C39.2558 2 50.001 12.7452 50.001 26C50.001 39.2548 39.2558 50 26.001 50C12.7461 50 2.00098 39.2548 2.00098 26ZM26.001 0C11.6416 0 0.000976562 11.6406 0.000976562 26C0.000976562 40.3594 11.6416 52 26.001 52C40.3604 52 52.001 40.3594 52.001 26C52.001 11.6406 40.3604 0 26.001 0ZM14.801 33.5999C14.4697 34.0418 13.8429 34.1313 13.401 33.7999C12.9592 33.4686 12.8697 32.8418 13.201 32.3999L25.201 16.4C25.3898 16.1482 25.6862 16 26.001 16C26.3157 16 26.6121 16.1482 26.801 16.4L38.8009 32.3999C39.1323 32.8418 39.0427 33.4686 38.6009 33.7999C38.1591 34.1313 37.5323 34.0418 37.2009 33.5999L34.5009 30H17.501L14.801 33.5999ZM26.001 18.6667L19.001 28H33.0009L26.001 18.6667Z" fill="white"/>
</svg>
