<svg width="52" height="52" viewBox="0 0 52 52" fill="none" xmlns="http://www.w3.org/2000/svg">
<path fill-rule="evenodd" clip-rule="evenodd" d="M2.00098 26C2.00098 12.7452 12.7461 2 26.001 2C39.2558 2 50.001 12.7452 50.001 26C50.001 39.2548 39.2558 50 26.001 50C12.7461 50 2.00098 39.2548 2.00098 26ZM26.001 0C11.6416 0 0.000976562 11.6406 0.000976562 26C0.000976562 40.3594 11.6416 52 26.001 52C40.3604 52 52.001 40.3594 52.001 26C52.001 11.6406 40.3604 0 26.001 0ZM16.001 20C16.001 19.4477 16.4487 19 17.001 19H33.001C34.6578 19 36.001 20.3431 36.001 22C36.001 23.656 34.6592 24.9986 33.0035 25H16.001V20ZM38.001 22C38.001 23.2708 37.5269 24.4308 36.746 25.3129C38.6469 26.021 40.001 27.8524 40.001 30C40.001 32.7614 37.7624 35 35.001 35L17.001 35C15.3441 35 14.001 33.6569 14.001 32V20C14.001 18.3431 15.3441 17 17.001 17H33.001C35.7624 17 38.001 19.2386 38.001 22ZM33.001 27H33.0042H35.001C36.6578 27 38.001 28.3431 38.001 30C38.001 31.6569 36.6578 33 35.001 33H17.001C16.4487 33 16.001 32.5523 16.001 32V27L33.001 27Z" fill="white"/>
</svg>
